<?xml version="1.0" encoding="UTF-8" standalone="no"?>
<!-- Created with Inkscape (http://www.inkscape.org/) -->

<svg
   xmlns:dc="http://purl.org/dc/elements/1.1/"
   xmlns:cc="http://creativecommons.org/ns#"
   xmlns:rdf="http://www.w3.org/1999/02/22-rdf-syntax-ns#"
   xmlns:svg="http://www.w3.org/2000/svg"
   xmlns="http://www.w3.org/2000/svg"
   xmlns:xlink="http://www.w3.org/1999/xlink"
   xmlns:sodipodi="http://sodipodi.sourceforge.net/DTD/sodipodi-0.dtd"
   xmlns:inkscape="http://www.inkscape.org/namespaces/inkscape"
   width="210mm"
   height="297mm"
   id="svg5477"
   version="1.1"
   inkscape:version="0.48.2 r9819"
   sodipodi:docname="gui.svg">
  <defs
     id="defs5479" />
  <sodipodi:namedview
     id="base"
     pagecolor="#ffffff"
     bordercolor="#666666"
     borderopacity="1.0"
     inkscape:pageopacity="0.0"
     inkscape:pageshadow="2"
     inkscape:zoom="0.98994949"
     inkscape:cx="394.60028"
     inkscape:cy="587.8252"
     inkscape:document-units="px"
     inkscape:current-layer="layer7"
     showgrid="false"
     inkscape:window-width="1920"
     inkscape:window-height="1178"
     inkscape:window-x="-8"
     inkscape:window-y="-8"
     inkscape:window-maximized="1" />
  <metadata
     id="metadata5482">
    <rdf:RDF>
      <cc:Work
         rdf:about="">
        <dc:format>image/svg+xml</dc:format>
        <dc:type
           rdf:resource="http://purl.org/dc/dcmitype/StillImage" />
        <dc:title></dc:title>
      </cc:Work>
    </rdf:RDF>
  </metadata>
  <g
     inkscape:groupmode="layer"
     id="layer7"
     inkscape:label="background_blue"
     style="display:inline">
    <rect
       style="fill:#6ba0d9;fill-opacity:1;stroke:none;display:inline"
       id="rect5196"
       width="320"
       height="480"
       x="196"
       y="173.36218"
       inkscape:export-filename="C:\Users\andreas\Documents\GitHub\pace-calculator\design\ios\splash@2x.png"
       inkscape:export-xdpi="180"
       inkscape:export-ydpi="180" />
  </g>
  <g
     inkscape:groupmode="layer"
     id="layer6"
     inkscape:label="startscreen2"
     style="display:inline"
     sodipodi:insensitive="true">
    <g
       transform="translate(0.42630722,226.72232)"
       id="g6162">
      <g
         inkscape:export-ydpi="25.309999"
         inkscape:export-xdpi="25.309999"
         inkscape:export-filename="C:\Users\andreas\Documents\GitHub\pace-calculator\img\icon@2xipad.png"
         style="font-size:40px;font-style:normal;font-variant:normal;font-weight:normal;font-stretch:normal;line-height:125%;letter-spacing:0px;word-spacing:0px;fill:#ffffff;fill-opacity:1;stroke:none;display:inline;font-family:AvantGarde Bk BT;-inkscape-font-specification:AvantGarde Bk BT"
         transform="matrix(1.8276606,0,-0.27879116,1.8276606,99.744811,-93.743127)"
         id="g6164">
        <path
           d="m 143.43823,194.27086 -5.67915,0 -10.86874,0 c -0.22747,0.007 -0.42126,0.0908 -0.58139,0.25091 -0.16014,0.16018 -0.24377,0.35397 -0.25091,0.58137 l 0,37.50206 c 0.007,0.22745 0.0908,0.42126 0.25091,0.58139 0.16013,0.16013 0.35394,0.24377 0.58139,0.25091 l 10.03644,0 c 0.22745,-0.004 0.42124,-0.0817 0.58139,-0.23255 0.16012,-0.15096 0.24375,-0.35087 0.25091,-0.59975 l 0,-6.95206 c 0.007,-0.22745 0.0908,-0.42126 0.2509,-0.58139 0.16013,-0.16013 0.35393,-0.24376 0.58139,-0.25091 l 4.84686,0 c 4.31851,-0.11016 7.90878,-1.60338 10.77084,-4.47969 2.86199,-2.87628 4.34706,-6.47471 4.4552,-10.7953 -0.1081,-4.32055 -1.59321,-7.91897 -4.4552,-10.7953 -2.86206,-2.87627 -6.45233,-4.3695 -10.77084,-4.47969 z m 0,18.84894 -4.84686,0 c -0.22746,-0.007 -0.42126,-0.0908 -0.58139,-0.2509 -0.16014,-0.16013 -0.24378,-0.35391 -0.2509,-0.58139 l 0,-5.48333 c 0.004,-0.22437 0.0817,-0.41203 0.23254,-0.56302 0.15095,-0.15093 0.35086,-0.24068 0.59975,-0.26926 l 4.84686,0 c 1.00363,0.0266 1.83593,0.37741 2.49688,1.05259 0.66092,0.67524 1.00363,1.51569 1.02813,2.52136 -0.0245,1.00571 -0.36721,1.84616 -1.02813,2.52135 -0.66095,0.67524 -1.49325,1.02611 -2.49688,1.0526 z"
           style="text-align:start;line-height:125%;writing-mode:lr-tb;text-anchor:start;fill:#ffffff;fill-opacity:1;font-family:FatFrank;-inkscape-font-specification:FatFrank"
           id="path6166"
           inkscape:connector-curvature="0" />
        <path
           inkscape:connector-curvature="0"
           d="m 166.1052,206.77086 c -0.15626,0.004 -0.31043,0.0549 -0.4625,0.15417 -0.1521,0.0993 -0.2646,0.22572 -0.3375,0.37916 l -11.09999,25.59998 c -0.0493,0.15347 -0.0424,0.27986 0.0208,0.37916 0.0632,0.0993 0.17847,0.1507 0.34583,0.15417 l 6.83333,0 c 0.15624,-0.004 0.31041,-0.0542 0.4625,-0.15 0.15208,-0.0958 0.26458,-0.2125 0.3375,-0.35 l 0.6,-1.36666 c 0.0722,-0.1375 0.1861,-0.25417 0.34167,-0.35001 0.15554,-0.0958 0.31943,-0.14583 0.49166,-0.14999 l 8,0 c 0.15623,0.004 0.31039,0.0542 0.46249,0.14999 0.15207,0.0958 0.26457,0.21251 0.3375,0.35001 l 0.63334,1.36666 c 0.0729,0.1375 0.1854,0.25417 0.3375,0.35 0.15206,0.0958 0.30623,0.14583 0.4625,0.15 l 6.83332,0 c 0.15345,-0.003 0.26317,-0.0549 0.32917,-0.15417 0.0659,-0.0993 0.0673,-0.22569 0.004,-0.37916 l -11.06666,-25.59998 c -0.0729,-0.15344 -0.18543,-0.27983 -0.3375,-0.37917 -0.1521,-0.0993 -0.30627,-0.15066 -0.4625,-0.15416 l -3.06666,0 z m 0.66666,17.46665 c -0.15348,-0.003 -0.2632,-0.0548 -0.32916,-0.15417 -0.066,-0.0993 -0.0674,-0.22568 -0.004,-0.37916 l 0.96667,-2.06667 c 0.0694,-0.13332 0.14721,-0.19999 0.23333,-0.2 0.0861,1e-5 0.16387,0.0667 0.23333,0.2 l 0.96667,2.06667 c 0.0486,0.15348 0.043,0.27987 -0.0167,0.37916 -0.0597,0.0993 -0.16529,0.15071 -0.31667,0.15417 l -1.73333,0 z"
           style="text-align:start;line-height:125%;writing-mode:lr-tb;text-anchor:start;fill:#ffffff;fill-opacity:1;font-family:FatFrank;-inkscape-font-specification:FatFrank"
           id="path6168" />
        <path
           d="m 203.59439,229.20417 -5.36666,-4.33333 c -0.12155,-0.1 -0.26183,-0.14999 -0.42084,-0.15 -0.15904,1e-5 -0.30765,0.05 -0.44583,0.15 l 0,0 c -0.48682,0.36945 -1.02988,0.65556 -1.62916,0.85833 -0.59932,0.20279 -1.23405,0.30557 -1.90417,0.30834 -1.6764,-0.043 -3.07362,-0.62361 -4.19166,-1.74167 -1.11806,-1.11804 -1.69862,-2.51526 -1.74167,-4.19166 0.043,-1.67637 0.62361,-3.07359 1.74167,-4.19166 1.11804,-1.11804 2.51526,-1.69859 4.19166,-1.74167 0.67013,0.004 1.30485,0.11252 1.90417,0.325 0.59928,0.21252 1.14234,0.50419 1.62916,0.875 l 0,0 c 0.13818,0.0986 0.28679,0.14307 0.44583,0.13333 0.15901,-0.01 0.29929,-0.0653 0.42084,-0.16666 l 5.36666,-4.3 c 0.11595,-0.10484 0.17567,-0.22845 0.17917,-0.37083 0.003,-0.14234 -0.0452,-0.27428 -0.14584,-0.39583 -1.26252,-1.26317 -2.72918,-2.25345 -4.39999,-2.97084 -1.67085,-0.71733 -3.47085,-1.08261 -5.4,-1.09583 -3.93334,0.10003 -7.20833,1.45836 -9.82499,4.075 -2.61667,2.61668 -3.975,5.89168 -4.075,9.82499 0.1,3.94792 1.45834,7.22708 4.075,9.83749 2.61666,2.61041 5.89165,3.96458 9.82499,4.0625 1.92915,-0.0118 3.72915,-0.37153 5.4,-1.07917 1.67081,-0.70764 3.13747,-1.69236 4.39999,-2.95416 0.10067,-0.13611 0.14928,-0.27222 0.14584,-0.40834 -0.003,-0.1361 -0.0632,-0.25555 -0.17917,-0.35833 z"
           style="text-align:start;line-height:125%;writing-mode:lr-tb;text-anchor:start;fill:#ffffff;fill-opacity:1;font-family:FatFrank;-inkscape-font-specification:FatFrank"
           id="path6170"
           inkscape:connector-curvature="0"
           sodipodi:nodetypes="cccccscccscccccccccccscscsccc" />
        <path
           d="m 224.75689,214.73752 c 0.15485,-0.003 0.28679,-0.0555 0.39584,-0.15834 0.10901,-0.10275 0.16595,-0.23887 0.17083,-0.40833 l 0,-6.83333 c -0.005,-0.15483 -0.0618,-0.28677 -0.17083,-0.39583 -0.10905,-0.109 -0.24099,-0.16594 -0.39584,-0.17083 l -17.69998,0 c -0.15486,0.005 -0.28681,0.0618 -0.39583,0.17083 -0.10903,0.10906 -0.16597,0.241 -0.17084,0.39583 l 0,25.53331 c 0.005,0.15486 0.0618,0.28681 0.17084,0.39584 0.10903,0.10902 0.24097,0.16597 0.39583,0.17083 l 17.69998,0 c 0.15485,-0.005 0.28679,-0.0618 0.39584,-0.17083 0.10901,-0.10903 0.16595,-0.24097 0.17083,-0.39584 l 0,-6.83332 c -0.005,-0.15486 -0.0618,-0.2868 -0.17083,-0.39584 -0.10905,-0.10902 -0.24099,-0.16596 -0.39584,-0.17083 l -9.73332,0 c -0.15487,-0.005 -0.28681,-0.0618 -0.39583,-0.17083 -0.10904,-0.10902 -0.16598,-0.24097 -0.17084,-0.39584 l 0,-0.53333 c 0.005,-0.15485 0.0618,-0.28679 0.17084,-0.39583 0.10902,-0.10902 0.24096,-0.16596 0.39583,-0.17083 l 5.43333,0 c 0.16943,-0.003 0.31387,-0.0556 0.43333,-0.15834 0.11943,-0.10277 0.19721,-0.23888 0.23333,-0.40833 l 0.7,-5.69999 c 0.0125,-0.15485 -0.0292,-0.28679 -0.125,-0.39584 -0.0959,-0.10901 -0.22084,-0.16595 -0.375,-0.17083 l -6.29999,0 c -0.15487,-0.005 -0.28681,-0.0618 -0.39583,-0.17083 -0.10904,-0.10902 -0.16598,-0.24096 -0.17084,-0.39584 l 0,-1.1 c 0.005,-0.15484 0.0618,-0.28678 0.17084,-0.39583 0.10902,-0.10901 0.24096,-0.16595 0.39583,-0.17083 z"
           style="text-align:start;line-height:125%;writing-mode:lr-tb;text-anchor:start;fill:#ffffff;fill-opacity:1;font-family:FatFrank;-inkscape-font-specification:FatFrank"
           id="path6172"
           inkscape:connector-curvature="0"
           sodipodi:nodetypes="ccccccccccscccccccccccscccccccccccccc" />
      </g>
      <path
         inkscape:export-ydpi="25.309999"
         inkscape:export-xdpi="25.309999"
         inkscape:export-filename="C:\Users\andreas\Documents\GitHub\pace-calculator\img\icon@2xipad.png"
         sodipodi:nodetypes="ccccc"
         inkscape:connector-curvature="0"
         id="path6174"
         d="m 264.13265,337.97529 185.36917,0 -6.74974,34.64889 -185.36922,0 z"
         style="fill:#ffffff;fill-opacity:1;stroke:none;display:inline" />
      <g
         inkscape:export-ydpi="25.309999"
         inkscape:export-xdpi="25.309999"
         inkscape:export-filename="C:\Users\andreas\Documents\GitHub\pace-calculator\img\icon@2xipad.png"
         style="fill:#6ba0d9;fill-opacity:1;display:inline"
         transform="matrix(1.6755877,0,0,1.6755877,116.79646,-29.018054)"
         id="g6176">
        <path
           d="m 98.240655,233.76476 -2.292428,-1.85103 c -0.0519,-0.0427 -0.11184,-0.0641 -0.17976,-0.0641 -0.068,0 -0.13142,0.0213 -0.19045,0.0641 l 0,0 c -0.20795,0.15781 -0.43992,0.28003 -0.69591,0.36664 -0.256,0.0867 -0.52714,0.13053 -0.81339,0.13171 -0.71609,-0.0184 -1.31293,-0.26638 -1.79051,-0.74397 -0.47759,-0.47759 -0.72558,-1.07443 -0.74397,-1.79052 0.0184,-0.71608 0.26638,-1.31291 0.74397,-1.79051 0.47758,-0.47758 1.07442,-0.72557 1.79051,-0.74398 0.28625,0.002 0.55739,0.0481 0.81339,0.13884 0.25599,0.0908 0.48796,0.21536 0.69591,0.37376 l 0,0 c 0.059,0.0421 0.12251,0.0611 0.19045,0.057 0.0679,-0.004 0.12784,-0.0279 0.17976,-0.0712 l 2.292428,-1.83679 c 0.0495,-0.0448 0.0751,-0.0976 0.0765,-0.15841 9.6e-4,-0.0608 -0.0193,-0.11715 -0.0622,-0.16908 -0.539298,-0.53957 -1.165808,-0.96259 -1.879508,-1.26903 -0.71372,-0.30642 -1.48261,-0.46244 -2.30667,-0.46809 -1.68017,0.0427 -3.07911,0.62295 -4.19685,1.74068 -1.11774,1.11774 -1.69797,2.5167 -1.74068,4.19685 0.0427,1.6864 0.62294,3.08713 1.74068,4.2022 1.11774,1.11506 2.51668,1.69351 4.19685,1.73534 0.82406,-0.005 1.59295,-0.15871 2.30667,-0.46099 0.7137,-0.30227 1.34021,-0.7229 1.879508,-1.26189 0.043,-0.0581 0.0638,-0.11628 0.0622,-0.17443 -0.002,-0.0581 -0.027,-0.10916 -0.0765,-0.15306 z"
           style="font-size:40px;font-style:normal;font-variant:normal;font-weight:normal;font-stretch:normal;text-align:start;line-height:125%;letter-spacing:0px;word-spacing:0px;writing-mode:lr-tb;text-anchor:start;fill:#6ba0d9;fill-opacity:1;stroke:none;font-family:FatFrank;-inkscape-font-specification:FatFrank"
           id="path6178"
           inkscape:connector-curvature="0" />
        <path
           d="m 103.7121,224.18212 c -0.0667,9.6e-4 -0.1326,0.0235 -0.19756,0.0659 -0.0649,0.0424 -0.11302,0.0964 -0.14417,0.16195 l -4.741485,10.93532 c -0.0211,0.0656 -0.0181,0.11955 0.009,0.16197 0.027,0.0424 0.0762,0.0643 0.14773,0.0659 l 2.918925,0 c 0.0667,-0.002 0.1326,-0.0232 0.19756,-0.0641 0.0649,-0.0409 0.11302,-0.0908 0.14417,-0.1495 l 0.2563,-0.58378 c 0.0308,-0.0587 0.0795,-0.10858 0.14594,-0.14952 0.0665,-0.0409 0.13645,-0.0623 0.21003,-0.0641 l 3.41728,0 c 0.0667,0.002 0.13259,0.0232 0.19756,0.0641 0.0649,0.0409 0.11301,0.0908 0.14417,0.14952 l 0.27054,0.58378 c 0.0311,0.0587 0.0792,0.10857 0.14416,0.1495 0.0649,0.0409 0.13081,0.0623 0.19756,0.0641 l 2.91894,0 c 0.0656,-9.5e-4 0.11241,-0.0235 0.1406,-0.0659 0.0281,-0.0424 0.0287,-0.0964 0.002,-0.16197 l -4.72724,-10.93532 c -0.0311,-0.0655 -0.0792,-0.11952 -0.14417,-0.16196 -0.0649,-0.0424 -0.13082,-0.0643 -0.19755,-0.0659 l -1.30997,0 z m 0.28477,7.46107 c -0.0656,-9.6e-4 -0.11243,-0.0235 -0.1406,-0.0659 -0.0281,-0.0424 -0.0288,-0.0964 -0.002,-0.16196 l 0.41292,-0.8828 c 0.0297,-0.057 0.0629,-0.0854 0.0997,-0.0854 0.0368,0 0.07,0.0285 0.0997,0.0854 l 0.41292,0.8828 c 0.0208,0.0656 0.0184,0.11955 -0.007,0.16196 -0.0255,0.0424 -0.0706,0.0643 -0.13527,0.0659 l -0.74041,0 z"
           style="font-size:40px;font-style:normal;font-variant:normal;font-weight:normal;font-stretch:normal;text-align:start;line-height:125%;letter-spacing:0px;word-spacing:0px;writing-mode:lr-tb;text-anchor:start;fill:#6ba0d9;fill-opacity:1;stroke:none;font-family:FatFrank;-inkscape-font-specification:FatFrank"
           id="path6180"
           inkscape:connector-curvature="0" />
        <path
           d="m 118.71168,232.41208 c 0.006,-0.0662 -0.0124,-0.1225 -0.0534,-0.16909 -0.0409,-0.0465 -0.0943,-0.0709 -0.16019,-0.073 l -4.15769,0 c -0.0662,-0.002 -0.12252,-0.0264 -0.16909,-0.073 -0.0465,-0.0465 -0.0709,-0.10293 -0.073,-0.16908 l 0,-7.5038 c -0.002,-0.0662 -0.0264,-0.12249 -0.073,-0.16908 -0.0465,-0.0465 -0.10293,-0.0709 -0.16908,-0.073 l -2.91893,0 c -0.0662,0.002 -0.12251,0.0264 -0.16909,0.073 -0.0465,0.0465 -0.0708,0.10295 -0.073,0.16908 l 0,10.90684 c 0.002,0.0662 0.0264,0.12252 0.073,0.16909 0.0465,0.0465 0.10294,0.0709 0.16909,0.073 l 7.19054,0 c 0.0665,-0.002 0.12577,-0.0264 0.17798,-0.073 0.0522,-0.0465 0.083,-0.10293 0.0926,-0.16909 l 0.31325,-2.91893 z"
           style="font-size:40px;font-style:normal;font-variant:normal;font-weight:normal;font-stretch:normal;text-align:start;line-height:125%;letter-spacing:0px;word-spacing:0px;writing-mode:lr-tb;text-anchor:start;fill:#6ba0d9;fill-opacity:1;stroke:none;font-family:FatFrank;-inkscape-font-specification:FatFrank"
           id="path6182"
           inkscape:connector-curvature="0" />
        <path
           d="m 129.11906,233.76476 -2.29242,-1.85103 c -0.0519,-0.0427 -0.11185,-0.0641 -0.17977,-0.0641 -0.068,0 -0.13142,0.0213 -0.19044,0.0641 l 0,0 c -0.20795,0.15781 -0.43993,0.28003 -0.69592,0.36664 -0.25601,0.0867 -0.52714,0.13053 -0.81339,0.13171 -0.71609,-0.0184 -1.31292,-0.26638 -1.79051,-0.74397 -0.4776,-0.47759 -0.72558,-1.07443 -0.74398,-1.79052 0.0184,-0.71608 0.26638,-1.31291 0.74398,-1.79051 0.47759,-0.47758 1.07442,-0.72557 1.79051,-0.74398 0.28626,0.002 0.55738,0.0481 0.81339,0.13884 0.25599,0.0908 0.48797,0.21536 0.69592,0.37376 l 0,0 c 0.059,0.0421 0.12251,0.0611 0.19044,0.057 0.0679,-0.004 0.12784,-0.0279 0.17977,-0.0712 l 2.29242,-1.83679 c 0.0495,-0.0448 0.0751,-0.0976 0.0765,-0.15841 9.6e-4,-0.0608 -0.0193,-0.11715 -0.0623,-0.16908 -0.53931,-0.53957 -1.1658,-0.96259 -1.87951,-1.26903 -0.71373,-0.30642 -1.48262,-0.46244 -2.30668,-0.46809 -1.68017,0.0427 -3.07911,0.62295 -4.19684,1.74068 -1.11775,1.11774 -1.69797,2.5167 -1.74069,4.19685 0.0427,1.6864 0.62295,3.08713 1.74069,4.2022 1.11773,1.11506 2.51667,1.69351 4.19684,1.73534 0.82406,-0.005 1.59295,-0.15871 2.30668,-0.46099 0.71371,-0.30227 1.3402,-0.7229 1.87951,-1.26189 0.043,-0.0581 0.0638,-0.11628 0.0623,-0.17443 -9.6e-4,-0.0581 -0.027,-0.10916 -0.0765,-0.15306 z"
           style="font-size:40px;font-style:normal;font-variant:normal;font-weight:normal;font-stretch:normal;text-align:start;line-height:125%;letter-spacing:0px;word-spacing:0px;writing-mode:lr-tb;text-anchor:start;fill:#6ba0d9;fill-opacity:1;stroke:none;font-family:FatFrank;-inkscape-font-specification:FatFrank"
           id="path6184"
           inkscape:connector-curvature="0" />
        <path
           d="m 139.29965,224.18212 -2.91893,0 c -0.0662,0.002 -0.12251,0.0267 -0.16909,0.0748 -0.0465,0.0481 -0.0709,0.10859 -0.073,0.18155 l 0,6.52131 c -0.0107,0.40937 -0.15307,0.7511 -0.42716,1.02519 -0.2741,0.2741 -0.61583,0.41648 -1.02519,0.42716 -0.41618,-0.0106 -0.76206,-0.15306 -1.03763,-0.42716 -0.27559,-0.27409 -0.41857,-0.61582 -0.42895,-1.02519 l 0,-6.52131 c -9.6e-4,-0.073 -0.0238,-0.13349 -0.0676,-0.18155 -0.0439,-0.0481 -0.10205,-0.073 -0.17442,-0.0748 l -2.91894,0 c -0.0662,0.002 -0.12251,0.0267 -0.16908,0.0748 -0.0465,0.0481 -0.0709,0.10859 -0.073,0.18155 l 0,6.52131 c 0.0348,1.37345 0.50993,2.51729 1.42565,3.43153 0.91573,0.91424 2.06372,1.38887 3.44398,1.42387 1.37344,-0.035 2.51728,-0.50963 3.43153,-1.42387 0.91423,-0.91425 1.38886,-2.05808 1.42387,-3.43153 l 0,-6.52131 c -9.5e-4,-0.073 -0.0237,-0.13349 -0.0676,-0.18155 -0.044,-0.0481 -0.10205,-0.073 -0.17442,-0.0748 z"
           style="font-size:40px;font-style:normal;font-variant:normal;font-weight:normal;font-stretch:normal;text-align:start;line-height:125%;letter-spacing:0px;word-spacing:0px;writing-mode:lr-tb;text-anchor:start;fill:#6ba0d9;fill-opacity:1;stroke:none;font-family:FatFrank;-inkscape-font-specification:FatFrank"
           id="path6186"
           inkscape:connector-curvature="0" />
        <path
           d="m 149.08718,232.41208 c 0.006,-0.0662 -0.0124,-0.1225 -0.0534,-0.16909 -0.0409,-0.0465 -0.0943,-0.0709 -0.16018,-0.073 l -4.15769,0 c -0.0662,-0.002 -0.12252,-0.0264 -0.16909,-0.073 -0.0465,-0.0465 -0.0709,-0.10293 -0.073,-0.16908 l 0,-7.5038 c -0.002,-0.0662 -0.0264,-0.12249 -0.073,-0.16908 -0.0465,-0.0465 -0.10293,-0.0709 -0.16908,-0.073 l -2.91893,0 c -0.0662,0.002 -0.12252,0.0264 -0.16909,0.073 -0.0465,0.0465 -0.0709,0.10295 -0.073,0.16908 l 0,10.90684 c 0.002,0.0662 0.0264,0.12252 0.073,0.16909 0.0465,0.0465 0.10293,0.0709 0.16909,0.073 l 7.19053,0 c 0.0665,-0.002 0.12577,-0.0264 0.17799,-0.073 0.0522,-0.0465 0.083,-0.10293 0.0926,-0.16909 l 0.31325,-2.91893 z"
           style="font-size:40px;font-style:normal;font-variant:normal;font-weight:normal;font-stretch:normal;text-align:start;line-height:125%;letter-spacing:0px;word-spacing:0px;writing-mode:lr-tb;text-anchor:start;fill:#6ba0d9;fill-opacity:1;stroke:none;font-family:FatFrank;-inkscape-font-specification:FatFrank"
           id="path6188"
           inkscape:connector-curvature="0" />
        <path
           d="m 154.15892,224.18212 c -0.0667,9.6e-4 -0.1326,0.0235 -0.19756,0.0659 -0.0649,0.0424 -0.11302,0.0964 -0.14417,0.16195 l -4.74149,10.93532 c -0.0211,0.0656 -0.0181,0.11955 0.009,0.16197 0.027,0.0424 0.0762,0.0643 0.14773,0.0659 l 2.91893,0 c 0.0667,-0.002 0.1326,-0.0232 0.19756,-0.0641 0.0649,-0.0409 0.11302,-0.0908 0.14417,-0.1495 l 0.2563,-0.58378 c 0.0308,-0.0587 0.0795,-0.10858 0.14594,-0.14952 0.0665,-0.0409 0.13645,-0.0623 0.21002,-0.0641 l 3.41729,0 c 0.0667,0.002 0.13259,0.0232 0.19756,0.0641 0.0649,0.0409 0.11301,0.0908 0.14417,0.14952 l 0.27053,0.58378 c 0.0311,0.0587 0.0792,0.10857 0.14417,0.1495 0.0649,0.0409 0.13081,0.0623 0.19755,0.0641 l 2.91894,0 c 0.0656,-9.5e-4 0.11241,-0.0235 0.14061,-0.0659 0.0282,-0.0424 0.0287,-0.0964 0.002,-0.16197 l -4.72724,-10.93532 c -0.0311,-0.0655 -0.0792,-0.11952 -0.14417,-0.16196 -0.0649,-0.0424 -0.13082,-0.0643 -0.19755,-0.0659 l -1.30997,0 z m 0.28477,7.46107 c -0.0656,-9.6e-4 -0.11243,-0.0235 -0.14061,-0.0659 -0.0281,-0.0424 -0.0288,-0.0964 -0.002,-0.16196 l 0.41292,-0.8828 c 0.0297,-0.057 0.0629,-0.0854 0.0997,-0.0854 0.0368,0 0.07,0.0285 0.0997,0.0854 l 0.41292,0.8828 c 0.0208,0.0656 0.0184,0.11955 -0.007,0.16196 -0.0255,0.0424 -0.0706,0.0643 -0.13527,0.0659 l -0.74041,0 z"
           style="font-size:40px;font-style:normal;font-variant:normal;font-weight:normal;font-stretch:normal;text-align:start;line-height:125%;letter-spacing:0px;word-spacing:0px;writing-mode:lr-tb;text-anchor:start;fill:#6ba0d9;fill-opacity:1;stroke:none;font-family:FatFrank;-inkscape-font-specification:FatFrank"
           id="path6190"
           inkscape:connector-curvature="0" />
        <path
           d="m 168.21734,224.42417 c 0.006,-0.0662 -0.0125,-0.12249 -0.0534,-0.16908 -0.041,-0.0465 -0.0943,-0.0709 -0.16019,-0.073 l -8.88495,0 c -0.0662,0.002 -0.12251,0.0264 -0.16908,0.073 -0.0465,0.0465 -0.0709,0.10295 -0.073,0.16908 l 0,2.91893 c 0.002,0.0724 0.0264,0.13054 0.073,0.17443 0.0465,0.0439 0.10294,0.0665 0.16908,0.0676 l 2.49178,0 c 0.0724,0.002 0.13052,0.0264 0.17442,0.073 0.0439,0.0466 0.0665,0.10294 0.0676,0.16908 l 0,7.5038 c 0.002,0.0662 0.0264,0.12251 0.073,0.16908 0.0465,0.0465 0.10294,0.0709 0.16909,0.073 l 2.91893,0 c 0.0724,-0.002 0.13051,-0.0264 0.17443,-0.073 0.0439,-0.0465 0.0665,-0.10293 0.0676,-0.16908 l 0,-7.5038 c 0.002,-0.0662 0.0267,-0.1225 0.0748,-0.16908 0.0481,-0.0465 0.10856,-0.0709 0.18154,-0.073 l 2.12156,0 c 0.0665,-9.6e-4 0.12577,-0.0238 0.17799,-0.0676 0.0522,-0.0439 0.083,-0.10204 0.0926,-0.17443 l 0.31325,-2.91893 z"
           style="font-size:40px;font-style:normal;font-variant:normal;font-weight:normal;font-stretch:normal;text-align:start;line-height:125%;letter-spacing:0px;word-spacing:0px;writing-mode:lr-tb;text-anchor:start;fill:#6ba0d9;fill-opacity:1;stroke:none;font-family:FatFrank;-inkscape-font-specification:FatFrank"
           id="path6192"
           inkscape:connector-curvature="0" />
        <path
           d="m 174.53797,223.94006 c -1.68017,0.0427 -3.07912,0.62295 -4.19685,1.74068 -1.11774,1.11775 -1.69797,2.5167 -1.74069,4.19685 0.0427,1.68641 0.62295,3.08713 1.74069,4.2022 1.11773,1.11506 2.51668,1.69351 4.19685,1.73535 1.68016,-0.0418 3.0791,-0.62029 4.19685,-1.73535 1.11773,-1.11507 1.69795,-2.51579 1.74068,-4.2022 -0.0427,-1.68015 -0.62295,-3.0791 -1.74068,-4.19685 -1.11775,-1.11773 -2.51669,-1.69796 -4.19685,-1.74068 z m 0,8.47202 c -0.7161,-0.0184 -1.31294,-0.26638 -1.79052,-0.74397 -0.47759,-0.47759 -0.72558,-1.07443 -0.74397,-1.79052 0.0184,-0.71608 0.26638,-1.31291 0.74397,-1.79051 0.47758,-0.47758 1.07442,-0.72557 1.79052,-0.74398 0.71608,0.0184 1.31292,0.2664 1.79051,0.74398 0.47758,0.4776 0.72557,1.07443 0.74397,1.79051 -0.0184,0.71609 -0.26639,1.31293 -0.74397,1.79052 -0.47759,0.47759 -1.07443,0.72559 -1.79051,0.74397 z"
           style="font-size:40px;font-style:normal;font-variant:normal;font-weight:normal;font-stretch:normal;text-align:start;line-height:125%;letter-spacing:0px;word-spacing:0px;writing-mode:lr-tb;text-anchor:start;fill:#6ba0d9;fill-opacity:1;stroke:none;font-family:FatFrank;-inkscape-font-specification:FatFrank"
           id="path6194"
           inkscape:connector-curvature="0" />
        <path
           d="m 189.97964,232.61142 0,0 c -0.13705,-0.0371 -0.26164,-0.10174 -0.37377,-0.194 -0.11212,-0.0923 -0.20113,-0.20319 -0.26696,-0.33283 0.51109,-0.41202 0.91274,-0.91572 1.20495,-1.51108 0.29218,-0.59535 0.44108,-1.24499 0.44673,-1.94892 -0.0314,-1.25656 -0.46335,-2.3031 -1.29572,-3.13963 -0.83238,-0.83652 -1.87654,-1.27079 -3.13251,-1.30284 l -1.65169,0 -3.17523,0 c -0.0656,0.009 -0.11954,0.0344 -0.16196,0.0783 -0.0424,0.0439 -0.0644,0.0985 -0.0659,0.16374 l 0,10.90684 c 0.002,0.0724 0.0264,0.13052 0.073,0.17442 0.0465,0.0439 0.10295,0.0665 0.16909,0.0676 l 2.91893,0 c 0.0724,-9.6e-4 0.13052,-0.0238 0.17443,-0.0676 0.044,-0.0439 0.0665,-0.10204 0.0676,-0.17442 l 0,-2.02189 c 0.002,-0.0724 0.0264,-0.13053 0.073,-0.17443 0.0465,-0.0438 0.10293,-0.0665 0.16909,-0.0676 l 0.91127,0 c 0.2812,0.78758 0.73684,1.44434 1.36691,1.97028 0.63005,0.52594 1.37047,0.85165 2.22124,0.97713 0.0332,0.004 0.0771,-0.007 0.13171,-0.0321 0.0546,-0.0249 0.0914,-0.0854 0.11034,-0.18154 l 0.31326,-2.9047 c 2.8e-4,-0.11686 -0.0288,-0.1928 -0.0872,-0.22781 -0.0584,-0.035 -0.10532,-0.054 -0.14062,-0.057 z m -3.41728,-2.9474 -1.40963,0 c -0.0662,-0.002 -0.12252,-0.0264 -0.16908,-0.073 -0.0465,-0.0465 -0.0709,-0.10294 -0.073,-0.16909 l 0,-1.59474 c 0.002,-0.0662 0.0264,-0.1225 0.073,-0.16908 0.0465,-0.0465 0.10293,-0.0709 0.16908,-0.073 l 1.40963,0 c 0.29189,0.008 0.53395,0.10977 0.72617,0.30613 0.19222,0.19639 0.29189,0.44082 0.29901,0.7333 -0.007,0.29249 -0.10679,0.53692 -0.29901,0.73329 -0.19222,0.19639 -0.43428,0.29843 -0.72617,0.30614 z"
           style="font-size:40px;font-style:normal;font-variant:normal;font-weight:normal;font-stretch:normal;text-align:start;line-height:125%;letter-spacing:0px;word-spacing:0px;writing-mode:lr-tb;text-anchor:start;fill:#6ba0d9;fill-opacity:1;stroke:none;font-family:FatFrank;-inkscape-font-specification:FatFrank"
           id="path6196"
           inkscape:connector-curvature="0" />
      </g>
    </g>
    <g
       transform="matrix(1.6360212,0,0,1.6360212,-1533.9757,-369.50268)"
       id="g6198"
       style="display:inline">
      <g
         id="g6237"
         transform="translate(77.036971,52.610614)">
        <path
           transform="translate(919.61849,-353.54618)"
           sodipodi:type="arc"
           style="fill:#ffffff;fill-opacity:1;stroke:#ffffff;stroke-opacity:1"
           id="path6200"
           sodipodi:cx="158.57143"
           sodipodi:cy="755.93359"
           sodipodi:rx="44.285713"
           sodipodi:ry="44.285713"
           d="m 202.85714,755.93359 a 44.285713,44.285713 0 1 1 -88.57143,0 44.285713,44.285713 0 1 1 88.57143,0 z" />
        <path
           sodipodi:type="arc"
           style="fill:none;stroke:#ffffff;stroke-width:4.19999981;stroke-miterlimit:4;stroke-opacity:1;stroke-dasharray:none"
           id="path6202"
           sodipodi:cx="159.46428"
           sodipodi:cy="696.4693"
           sodipodi:rx="11.964286"
           sodipodi:ry="11.964286"
           d="m 171.42857,696.4693 a 11.964286,11.964286 0 1 1 -23.92858,0 11.964286,11.964286 0 1 1 23.92858,0 z"
           transform="matrix(1.1616039,0,0,1.1616039,892.95559,-468.41975)" />
        <rect
           style="fill:#ffffff;fill-opacity:1;stroke:#ffffff;stroke-opacity:1"
           id="rect6204"
           width="9.6332064"
           height="14.906509"
           x="1073.3733"
           y="345.26718" />
        <rect
           style="fill:#ffffff;fill-opacity:1;stroke:#ffffff;stroke-width:5.76038694;stroke-miterlimit:4;stroke-opacity:1;stroke-dasharray:none"
           id="rect6206"
           width="9.0548735"
           height="2.3008285"
           x="1073.6625"
           y="342.28482" />
        <path
           d="m 202.85714,755.93359 a 44.285713,44.285713 0 1 1 -88.57143,0 44.285713,44.285713 0 1 1 88.57143,0 z"
           sodipodi:ry="44.285713"
           sodipodi:rx="44.285713"
           sodipodi:cy="755.93359"
           sodipodi:cx="158.57143"
           id="path6208"
           style="fill:#6ba0d9;fill-opacity:1;stroke:#ffffff;stroke-opacity:1"
           sodipodi:type="arc"
           transform="matrix(0.67985092,0,0,0.67985092,970.38499,-111.53473)" />
        <path
           style="fill:#ffffff;fill-opacity:1;stroke:#ffffff;stroke-opacity:1"
           inkscape:transform-center-x="-8.5644091"
           inkscape:transform-center-y="-8.2259654"
           d="m 1096.2393,381.47114 2.4755,2.59388 -17.1524,21.24358 c -2.6175,3.24187 -6.5776,2.79752 -8.435,0.91276 -1.8575,-1.88476 -2.1407,-6.22803 1.0351,-8.55741 z"
           id="path6210"
           inkscape:connector-curvature="0"
           sodipodi:nodetypes="ccszsc" />
      </g>
    </g>
  </g>
  <g
     inkscape:groupmode="layer"
     id="layer8"
     inkscape:label="mainscreen"
     style="display:none"
     sodipodi:insensitive="true">
    <rect
       y="173.36218"
       x="196"
       height="92.14286"
       width="320"
       id="rect6246"
       style="fill:#6ba0d9;fill-opacity:1;stroke:none;display:inline" />
    <g
       id="g6319"
       transform="translate(6.7142857,-4.2857143)"
       inkscape:export-filename="C:\Users\andreas\Documents\GitHub\pace-calculator\design\logo_header.png"
       inkscape:export-xdpi="89.829285"
       inkscape:export-ydpi="89.829285">
      <g
         inkscape:export-ydpi="25.309999"
         inkscape:export-xdpi="25.309999"
         inkscape:export-filename="C:\Users\andreas\Documents\GitHub\pace-calculator\img\icon@2xipad.png"
         style="font-size:40px;font-style:normal;font-variant:normal;font-weight:normal;font-stretch:normal;line-height:125%;letter-spacing:0px;word-spacing:0px;fill:#ffffff;fill-opacity:1;stroke:none;display:inline;font-family:AvantGarde Bk BT;-inkscape-font-specification:AvantGarde Bk BT"
         transform="matrix(1.1094871,0,-0.16924106,1.1094871,104.62175,-4.7029788)"
         id="g5232">
        <path
           d="m 143.43823,194.27086 -5.67915,0 -10.86874,0 c -0.22747,0.007 -0.42126,0.0908 -0.58139,0.25091 -0.16014,0.16018 -0.24377,0.35397 -0.25091,0.58137 l 0,37.50206 c 0.007,0.22745 0.0908,0.42126 0.25091,0.58139 0.16013,0.16013 0.35394,0.24377 0.58139,0.25091 l 10.03644,0 c 0.22745,-0.004 0.42124,-0.0817 0.58139,-0.23255 0.16012,-0.15096 0.24375,-0.35087 0.25091,-0.59975 l 0,-6.95206 c 0.007,-0.22745 0.0908,-0.42126 0.2509,-0.58139 0.16013,-0.16013 0.35393,-0.24376 0.58139,-0.25091 l 4.84686,0 c 4.31851,-0.11016 7.90878,-1.60338 10.77084,-4.47969 2.86199,-2.87628 4.34706,-6.47471 4.4552,-10.7953 -0.1081,-4.32055 -1.59321,-7.91897 -4.4552,-10.7953 -2.86206,-2.87627 -6.45233,-4.3695 -10.77084,-4.47969 z m 0,18.84894 -4.84686,0 c -0.22746,-0.007 -0.42126,-0.0908 -0.58139,-0.2509 -0.16014,-0.16013 -0.24378,-0.35391 -0.2509,-0.58139 l 0,-5.48333 c 0.004,-0.22437 0.0817,-0.41203 0.23254,-0.56302 0.15095,-0.15093 0.35086,-0.24068 0.59975,-0.26926 l 4.84686,0 c 1.00363,0.0266 1.83593,0.37741 2.49688,1.05259 0.66092,0.67524 1.00363,1.51569 1.02813,2.52136 -0.0245,1.00571 -0.36721,1.84616 -1.02813,2.52135 -0.66095,0.67524 -1.49325,1.02611 -2.49688,1.0526 z"
           style="text-align:start;line-height:125%;writing-mode:lr-tb;text-anchor:start;fill:#ffffff;fill-opacity:1;font-family:FatFrank;-inkscape-font-specification:FatFrank"
           id="path5234"
           inkscape:connector-curvature="0" />
        <path
           inkscape:connector-curvature="0"
           d="m 166.1052,206.77086 c -0.15626,0.004 -0.31043,0.0549 -0.4625,0.15417 -0.1521,0.0993 -0.2646,0.22572 -0.3375,0.37916 l -11.09999,25.59998 c -0.0493,0.15347 -0.0424,0.27986 0.0208,0.37916 0.0632,0.0993 0.17847,0.1507 0.34583,0.15417 l 6.83333,0 c 0.15624,-0.004 0.31041,-0.0542 0.4625,-0.15 0.15208,-0.0958 0.26458,-0.2125 0.3375,-0.35 l 0.6,-1.36666 c 0.0722,-0.1375 0.1861,-0.25417 0.34167,-0.35001 0.15554,-0.0958 0.31943,-0.14583 0.49166,-0.14999 l 8,0 c 0.15623,0.004 0.31039,0.0542 0.46249,0.14999 0.15207,0.0958 0.26457,0.21251 0.3375,0.35001 l 0.63334,1.36666 c 0.0729,0.1375 0.1854,0.25417 0.3375,0.35 0.15206,0.0958 0.30623,0.14583 0.4625,0.15 l 6.83332,0 c 0.15345,-0.003 0.26317,-0.0549 0.32917,-0.15417 0.0659,-0.0993 0.0673,-0.22569 0.004,-0.37916 l -11.06666,-25.59998 c -0.0729,-0.15344 -0.18543,-0.27983 -0.3375,-0.37917 -0.1521,-0.0993 -0.30627,-0.15066 -0.4625,-0.15416 l -3.06666,0 z m 0.66666,17.46665 c -0.15348,-0.003 -0.2632,-0.0548 -0.32916,-0.15417 -0.066,-0.0993 -0.0674,-0.22568 -0.004,-0.37916 l 0.96667,-2.06667 c 0.0694,-0.13332 0.14721,-0.19999 0.23333,-0.2 0.0861,1e-5 0.16387,0.0667 0.23333,0.2 l 0.96667,2.06667 c 0.0486,0.15348 0.043,0.27987 -0.0167,0.37916 -0.0597,0.0993 -0.16529,0.15071 -0.31667,0.15417 l -1.73333,0 z"
           style="text-align:start;line-height:125%;writing-mode:lr-tb;text-anchor:start;fill:#ffffff;fill-opacity:1;font-family:FatFrank;-inkscape-font-specification:FatFrank"
           id="path5236" />
        <path
           d="m 203.59439,229.20417 -5.36666,-4.33333 c -0.12155,-0.1 -0.26183,-0.14999 -0.42084,-0.15 -0.15904,1e-5 -0.30765,0.05 -0.44583,0.15 l 0,0 c -0.48682,0.36945 -1.02988,0.65556 -1.62916,0.85833 -0.59932,0.20279 -1.23405,0.30557 -1.90417,0.30834 -1.6764,-0.043 -3.07362,-0.62361 -4.19166,-1.74167 -1.11806,-1.11804 -1.69862,-2.51526 -1.74167,-4.19166 0.043,-1.67637 0.62361,-3.07359 1.74167,-4.19166 1.11804,-1.11804 2.51526,-1.69859 4.19166,-1.74167 0.67013,0.004 1.30485,0.11252 1.90417,0.325 0.59928,0.21252 1.14234,0.50419 1.62916,0.875 l 0,0 c 0.13818,0.0986 0.28679,0.14307 0.44583,0.13333 0.15901,-0.01 0.29929,-0.0653 0.42084,-0.16666 l 5.36666,-4.3 c 0.11595,-0.10484 0.17567,-0.22845 0.17917,-0.37083 0.003,-0.14234 -0.0452,-0.27428 -0.14584,-0.39583 -1.26252,-1.26317 -2.72918,-2.25345 -4.39999,-2.97084 -1.67085,-0.71733 -3.47085,-1.08261 -5.4,-1.09583 -3.93334,0.10003 -7.20833,1.45836 -9.82499,4.075 -2.61667,2.61668 -3.975,5.89168 -4.075,9.82499 0.1,3.94792 1.45834,7.22708 4.075,9.83749 2.61666,2.61041 5.89165,3.96458 9.82499,4.0625 1.92915,-0.0118 3.72915,-0.37153 5.4,-1.07917 1.67081,-0.70764 3.13747,-1.69236 4.39999,-2.95416 0.10067,-0.13611 0.14928,-0.27222 0.14584,-0.40834 -0.003,-0.1361 -0.0632,-0.25555 -0.17917,-0.35833 z"
           style="text-align:start;line-height:125%;writing-mode:lr-tb;text-anchor:start;fill:#ffffff;fill-opacity:1;font-family:FatFrank;-inkscape-font-specification:FatFrank"
           id="path5238"
           inkscape:connector-curvature="0"
           sodipodi:nodetypes="cccccscccscccccccccccscscsccc" />
        <path
           d="m 224.75689,214.73752 c 0.15485,-0.003 0.28679,-0.0555 0.39584,-0.15834 0.10901,-0.10275 0.16595,-0.23887 0.17083,-0.40833 l 0,-6.83333 c -0.005,-0.15483 -0.0618,-0.28677 -0.17083,-0.39583 -0.10905,-0.109 -0.24099,-0.16594 -0.39584,-0.17083 l -17.69998,0 c -0.15486,0.005 -0.28681,0.0618 -0.39583,0.17083 -0.10903,0.10906 -0.16597,0.241 -0.17084,0.39583 l 0,25.53331 c 0.005,0.15486 0.0618,0.28681 0.17084,0.39584 0.10903,0.10902 0.24097,0.16597 0.39583,0.17083 l 17.69998,0 c 0.15485,-0.005 0.28679,-0.0618 0.39584,-0.17083 0.10901,-0.10903 0.16595,-0.24097 0.17083,-0.39584 l 0,-6.83332 c -0.005,-0.15486 -0.0618,-0.2868 -0.17083,-0.39584 -0.10905,-0.10902 -0.24099,-0.16596 -0.39584,-0.17083 l -9.73332,0 c -0.15487,-0.005 -0.28681,-0.0618 -0.39583,-0.17083 -0.10904,-0.10902 -0.16598,-0.24097 -0.17084,-0.39584 l 0,-0.53333 c 0.005,-0.15485 0.0618,-0.28679 0.17084,-0.39583 0.10902,-0.10902 0.24096,-0.16596 0.39583,-0.17083 l 5.43333,0 c 0.16943,-0.003 0.31387,-0.0556 0.43333,-0.15834 0.11943,-0.10277 0.19721,-0.23888 0.23333,-0.40833 l 0.7,-5.69999 c 0.0125,-0.15485 -0.0292,-0.28679 -0.125,-0.39584 -0.0959,-0.10901 -0.22084,-0.16595 -0.375,-0.17083 l -6.29999,0 c -0.15487,-0.005 -0.28681,-0.0618 -0.39583,-0.17083 -0.10904,-0.10902 -0.16598,-0.24096 -0.17084,-0.39584 l 0,-1.1 c 0.005,-0.15484 0.0618,-0.28678 0.17084,-0.39583 0.10902,-0.10901 0.24096,-0.16595 0.39583,-0.17083 z"
           style="text-align:start;line-height:125%;writing-mode:lr-tb;text-anchor:start;fill:#ffffff;fill-opacity:1;font-family:FatFrank;-inkscape-font-specification:FatFrank"
           id="path5240"
           inkscape:connector-curvature="0"
           sodipodi:nodetypes="ccccccccccscccccccccccscccccccccccccc" />
      </g>
      <g
         transform="matrix(0.96678875,0,0,0.96678875,-78.106706,168.70525)"
         id="g5266"
         style="display:inline">
        <path
           style="fill:#ffffff;fill-opacity:1;stroke:none"
           d="m 426.07774,58.108402 165.12769,0 -6.0127,30.865399 -165.12772,0 z"
           id="path5242"
           inkscape:connector-curvature="0"
           sodipodi:nodetypes="ccccc"
           inkscape:export-filename="C:\Users\andreas\Documents\GitHub\pace-calculator\img\icon@2xipad.png"
           inkscape:export-xdpi="25.309999"
           inkscape:export-ydpi="25.309999" />
        <g
           id="g5244"
           transform="matrix(1.4926209,0,0,1.4926209,294.83002,-268.81089)"
           style="fill:#6ba0d9;fill-opacity:1"
           inkscape:export-filename="C:\Users\andreas\Documents\GitHub\pace-calculator\img\icon@2xipad.png"
           inkscape:export-xdpi="25.309999"
           inkscape:export-ydpi="25.309999">
          <path
             inkscape:connector-curvature="0"
             id="path5246"
             style="font-size:40px;font-style:normal;font-variant:normal;font-weight:normal;font-stretch:normal;text-align:start;line-height:125%;letter-spacing:0px;word-spacing:0px;writing-mode:lr-tb;text-anchor:start;fill:#6ba0d9;fill-opacity:1;stroke:none;font-family:FatFrank;-inkscape-font-specification:FatFrank"
             d="m 98.240655,233.76476 -2.292428,-1.85103 c -0.0519,-0.0427 -0.11184,-0.0641 -0.17976,-0.0641 -0.068,0 -0.13142,0.0213 -0.19045,0.0641 l 0,0 c -0.20795,0.15781 -0.43992,0.28003 -0.69591,0.36664 -0.256,0.0867 -0.52714,0.13053 -0.81339,0.13171 -0.71609,-0.0184 -1.31293,-0.26638 -1.79051,-0.74397 -0.47759,-0.47759 -0.72558,-1.07443 -0.74397,-1.79052 0.0184,-0.71608 0.26638,-1.31291 0.74397,-1.79051 0.47758,-0.47758 1.07442,-0.72557 1.79051,-0.74398 0.28625,0.002 0.55739,0.0481 0.81339,0.13884 0.25599,0.0908 0.48796,0.21536 0.69591,0.37376 l 0,0 c 0.059,0.0421 0.12251,0.0611 0.19045,0.057 0.0679,-0.004 0.12784,-0.0279 0.17976,-0.0712 l 2.292428,-1.83679 c 0.0495,-0.0448 0.0751,-0.0976 0.0765,-0.15841 9.6e-4,-0.0608 -0.0193,-0.11715 -0.0622,-0.16908 -0.539298,-0.53957 -1.165808,-0.96259 -1.879508,-1.26903 -0.71372,-0.30642 -1.48261,-0.46244 -2.30667,-0.46809 -1.68017,0.0427 -3.07911,0.62295 -4.19685,1.74068 -1.11774,1.11774 -1.69797,2.5167 -1.74068,4.19685 0.0427,1.6864 0.62294,3.08713 1.74068,4.2022 1.11774,1.11506 2.51668,1.69351 4.19685,1.73534 0.82406,-0.005 1.59295,-0.15871 2.30667,-0.46099 0.7137,-0.30227 1.34021,-0.7229 1.879508,-1.26189 0.043,-0.0581 0.0638,-0.11628 0.0622,-0.17443 -0.002,-0.0581 -0.027,-0.10916 -0.0765,-0.15306 z" />
          <path
             inkscape:connector-curvature="0"
             id="path5248"
             style="font-size:40px;font-style:normal;font-variant:normal;font-weight:normal;font-stretch:normal;text-align:start;line-height:125%;letter-spacing:0px;word-spacing:0px;writing-mode:lr-tb;text-anchor:start;fill:#6ba0d9;fill-opacity:1;stroke:none;font-family:FatFrank;-inkscape-font-specification:FatFrank"
             d="m 103.7121,224.18212 c -0.0667,9.6e-4 -0.1326,0.0235 -0.19756,0.0659 -0.0649,0.0424 -0.11302,0.0964 -0.14417,0.16195 l -4.741485,10.93532 c -0.0211,0.0656 -0.0181,0.11955 0.009,0.16197 0.027,0.0424 0.0762,0.0643 0.14773,0.0659 l 2.918925,0 c 0.0667,-0.002 0.1326,-0.0232 0.19756,-0.0641 0.0649,-0.0409 0.11302,-0.0908 0.14417,-0.1495 l 0.2563,-0.58378 c 0.0308,-0.0587 0.0795,-0.10858 0.14594,-0.14952 0.0665,-0.0409 0.13645,-0.0623 0.21003,-0.0641 l 3.41728,0 c 0.0667,0.002 0.13259,0.0232 0.19756,0.0641 0.0649,0.0409 0.11301,0.0908 0.14417,0.14952 l 0.27054,0.58378 c 0.0311,0.0587 0.0792,0.10857 0.14416,0.1495 0.0649,0.0409 0.13081,0.0623 0.19756,0.0641 l 2.91894,0 c 0.0656,-9.5e-4 0.11241,-0.0235 0.1406,-0.0659 0.0281,-0.0424 0.0287,-0.0964 0.002,-0.16197 l -4.72724,-10.93532 c -0.0311,-0.0655 -0.0792,-0.11952 -0.14417,-0.16196 -0.0649,-0.0424 -0.13082,-0.0643 -0.19755,-0.0659 l -1.30997,0 z m 0.28477,7.46107 c -0.0656,-9.6e-4 -0.11243,-0.0235 -0.1406,-0.0659 -0.0281,-0.0424 -0.0288,-0.0964 -0.002,-0.16196 l 0.41292,-0.8828 c 0.0297,-0.057 0.0629,-0.0854 0.0997,-0.0854 0.0368,0 0.07,0.0285 0.0997,0.0854 l 0.41292,0.8828 c 0.0208,0.0656 0.0184,0.11955 -0.007,0.16196 -0.0255,0.0424 -0.0706,0.0643 -0.13527,0.0659 l -0.74041,0 z" />
          <path
             inkscape:connector-curvature="0"
             id="path5250"
             style="font-size:40px;font-style:normal;font-variant:normal;font-weight:normal;font-stretch:normal;text-align:start;line-height:125%;letter-spacing:0px;word-spacing:0px;writing-mode:lr-tb;text-anchor:start;fill:#6ba0d9;fill-opacity:1;stroke:none;font-family:FatFrank;-inkscape-font-specification:FatFrank"
             d="m 118.71168,232.41208 c 0.006,-0.0662 -0.0124,-0.1225 -0.0534,-0.16909 -0.0409,-0.0465 -0.0943,-0.0709 -0.16019,-0.073 l -4.15769,0 c -0.0662,-0.002 -0.12252,-0.0264 -0.16909,-0.073 -0.0465,-0.0465 -0.0709,-0.10293 -0.073,-0.16908 l 0,-7.5038 c -0.002,-0.0662 -0.0264,-0.12249 -0.073,-0.16908 -0.0465,-0.0465 -0.10293,-0.0709 -0.16908,-0.073 l -2.91893,0 c -0.0662,0.002 -0.12251,0.0264 -0.16909,0.073 -0.0465,0.0465 -0.0708,0.10295 -0.073,0.16908 l 0,10.90684 c 0.002,0.0662 0.0264,0.12252 0.073,0.16909 0.0465,0.0465 0.10294,0.0709 0.16909,0.073 l 7.19054,0 c 0.0665,-0.002 0.12577,-0.0264 0.17798,-0.073 0.0522,-0.0465 0.083,-0.10293 0.0926,-0.16909 l 0.31325,-2.91893 z" />
          <path
             inkscape:connector-curvature="0"
             id="path5252"
             style="font-size:40px;font-style:normal;font-variant:normal;font-weight:normal;font-stretch:normal;text-align:start;line-height:125%;letter-spacing:0px;word-spacing:0px;writing-mode:lr-tb;text-anchor:start;fill:#6ba0d9;fill-opacity:1;stroke:none;font-family:FatFrank;-inkscape-font-specification:FatFrank"
             d="m 129.11906,233.76476 -2.29242,-1.85103 c -0.0519,-0.0427 -0.11185,-0.0641 -0.17977,-0.0641 -0.068,0 -0.13142,0.0213 -0.19044,0.0641 l 0,0 c -0.20795,0.15781 -0.43993,0.28003 -0.69592,0.36664 -0.25601,0.0867 -0.52714,0.13053 -0.81339,0.13171 -0.71609,-0.0184 -1.31292,-0.26638 -1.79051,-0.74397 -0.4776,-0.47759 -0.72558,-1.07443 -0.74398,-1.79052 0.0184,-0.71608 0.26638,-1.31291 0.74398,-1.79051 0.47759,-0.47758 1.07442,-0.72557 1.79051,-0.74398 0.28626,0.002 0.55738,0.0481 0.81339,0.13884 0.25599,0.0908 0.48797,0.21536 0.69592,0.37376 l 0,0 c 0.059,0.0421 0.12251,0.0611 0.19044,0.057 0.0679,-0.004 0.12784,-0.0279 0.17977,-0.0712 l 2.29242,-1.83679 c 0.0495,-0.0448 0.0751,-0.0976 0.0765,-0.15841 9.6e-4,-0.0608 -0.0193,-0.11715 -0.0623,-0.16908 -0.53931,-0.53957 -1.1658,-0.96259 -1.87951,-1.26903 -0.71373,-0.30642 -1.48262,-0.46244 -2.30668,-0.46809 -1.68017,0.0427 -3.07911,0.62295 -4.19684,1.74068 -1.11775,1.11774 -1.69797,2.5167 -1.74069,4.19685 0.0427,1.6864 0.62295,3.08713 1.74069,4.2022 1.11773,1.11506 2.51667,1.69351 4.19684,1.73534 0.82406,-0.005 1.59295,-0.15871 2.30668,-0.46099 0.71371,-0.30227 1.3402,-0.7229 1.87951,-1.26189 0.043,-0.0581 0.0638,-0.11628 0.0623,-0.17443 -9.6e-4,-0.0581 -0.027,-0.10916 -0.0765,-0.15306 z" />
          <path
             inkscape:connector-curvature="0"
             id="path5254"
             style="font-size:40px;font-style:normal;font-variant:normal;font-weight:normal;font-stretch:normal;text-align:start;line-height:125%;letter-spacing:0px;word-spacing:0px;writing-mode:lr-tb;text-anchor:start;fill:#6ba0d9;fill-opacity:1;stroke:none;font-family:FatFrank;-inkscape-font-specification:FatFrank"
             d="m 139.29965,224.18212 -2.91893,0 c -0.0662,0.002 -0.12251,0.0267 -0.16909,0.0748 -0.0465,0.0481 -0.0709,0.10859 -0.073,0.18155 l 0,6.52131 c -0.0107,0.40937 -0.15307,0.7511 -0.42716,1.02519 -0.2741,0.2741 -0.61583,0.41648 -1.02519,0.42716 -0.41618,-0.0106 -0.76206,-0.15306 -1.03763,-0.42716 -0.27559,-0.27409 -0.41857,-0.61582 -0.42895,-1.02519 l 0,-6.52131 c -9.6e-4,-0.073 -0.0238,-0.13349 -0.0676,-0.18155 -0.0439,-0.0481 -0.10205,-0.073 -0.17442,-0.0748 l -2.91894,0 c -0.0662,0.002 -0.12251,0.0267 -0.16908,0.0748 -0.0465,0.0481 -0.0709,0.10859 -0.073,0.18155 l 0,6.52131 c 0.0348,1.37345 0.50993,2.51729 1.42565,3.43153 0.91573,0.91424 2.06372,1.38887 3.44398,1.42387 1.37344,-0.035 2.51728,-0.50963 3.43153,-1.42387 0.91423,-0.91425 1.38886,-2.05808 1.42387,-3.43153 l 0,-6.52131 c -9.5e-4,-0.073 -0.0237,-0.13349 -0.0676,-0.18155 -0.044,-0.0481 -0.10205,-0.073 -0.17442,-0.0748 z" />
          <path
             inkscape:connector-curvature="0"
             id="path5256"
             style="font-size:40px;font-style:normal;font-variant:normal;font-weight:normal;font-stretch:normal;text-align:start;line-height:125%;letter-spacing:0px;word-spacing:0px;writing-mode:lr-tb;text-anchor:start;fill:#6ba0d9;fill-opacity:1;stroke:none;font-family:FatFrank;-inkscape-font-specification:FatFrank"
             d="m 149.08718,232.41208 c 0.006,-0.0662 -0.0124,-0.1225 -0.0534,-0.16909 -0.0409,-0.0465 -0.0943,-0.0709 -0.16018,-0.073 l -4.15769,0 c -0.0662,-0.002 -0.12252,-0.0264 -0.16909,-0.073 -0.0465,-0.0465 -0.0709,-0.10293 -0.073,-0.16908 l 0,-7.5038 c -0.002,-0.0662 -0.0264,-0.12249 -0.073,-0.16908 -0.0465,-0.0465 -0.10293,-0.0709 -0.16908,-0.073 l -2.91893,0 c -0.0662,0.002 -0.12252,0.0264 -0.16909,0.073 -0.0465,0.0465 -0.0709,0.10295 -0.073,0.16908 l 0,10.90684 c 0.002,0.0662 0.0264,0.12252 0.073,0.16909 0.0465,0.0465 0.10293,0.0709 0.16909,0.073 l 7.19053,0 c 0.0665,-0.002 0.12577,-0.0264 0.17799,-0.073 0.0522,-0.0465 0.083,-0.10293 0.0926,-0.16909 l 0.31325,-2.91893 z" />
          <path
             inkscape:connector-curvature="0"
             id="path5258"
             style="font-size:40px;font-style:normal;font-variant:normal;font-weight:normal;font-stretch:normal;text-align:start;line-height:125%;letter-spacing:0px;word-spacing:0px;writing-mode:lr-tb;text-anchor:start;fill:#6ba0d9;fill-opacity:1;stroke:none;font-family:FatFrank;-inkscape-font-specification:FatFrank"
             d="m 154.15892,224.18212 c -0.0667,9.6e-4 -0.1326,0.0235 -0.19756,0.0659 -0.0649,0.0424 -0.11302,0.0964 -0.14417,0.16195 l -4.74149,10.93532 c -0.0211,0.0656 -0.0181,0.11955 0.009,0.16197 0.027,0.0424 0.0762,0.0643 0.14773,0.0659 l 2.91893,0 c 0.0667,-0.002 0.1326,-0.0232 0.19756,-0.0641 0.0649,-0.0409 0.11302,-0.0908 0.14417,-0.1495 l 0.2563,-0.58378 c 0.0308,-0.0587 0.0795,-0.10858 0.14594,-0.14952 0.0665,-0.0409 0.13645,-0.0623 0.21002,-0.0641 l 3.41729,0 c 0.0667,0.002 0.13259,0.0232 0.19756,0.0641 0.0649,0.0409 0.11301,0.0908 0.14417,0.14952 l 0.27053,0.58378 c 0.0311,0.0587 0.0792,0.10857 0.14417,0.1495 0.0649,0.0409 0.13081,0.0623 0.19755,0.0641 l 2.91894,0 c 0.0656,-9.5e-4 0.11241,-0.0235 0.14061,-0.0659 0.0282,-0.0424 0.0287,-0.0964 0.002,-0.16197 l -4.72724,-10.93532 c -0.0311,-0.0655 -0.0792,-0.11952 -0.14417,-0.16196 -0.0649,-0.0424 -0.13082,-0.0643 -0.19755,-0.0659 l -1.30997,0 z m 0.28477,7.46107 c -0.0656,-9.6e-4 -0.11243,-0.0235 -0.14061,-0.0659 -0.0281,-0.0424 -0.0288,-0.0964 -0.002,-0.16196 l 0.41292,-0.8828 c 0.0297,-0.057 0.0629,-0.0854 0.0997,-0.0854 0.0368,0 0.07,0.0285 0.0997,0.0854 l 0.41292,0.8828 c 0.0208,0.0656 0.0184,0.11955 -0.007,0.16196 -0.0255,0.0424 -0.0706,0.0643 -0.13527,0.0659 l -0.74041,0 z" />
          <path
             inkscape:connector-curvature="0"
             id="path5260"
             style="font-size:40px;font-style:normal;font-variant:normal;font-weight:normal;font-stretch:normal;text-align:start;line-height:125%;letter-spacing:0px;word-spacing:0px;writing-mode:lr-tb;text-anchor:start;fill:#6ba0d9;fill-opacity:1;stroke:none;font-family:FatFrank;-inkscape-font-specification:FatFrank"
             d="m 168.21734,224.42417 c 0.006,-0.0662 -0.0125,-0.12249 -0.0534,-0.16908 -0.041,-0.0465 -0.0943,-0.0709 -0.16019,-0.073 l -8.88495,0 c -0.0662,0.002 -0.12251,0.0264 -0.16908,0.073 -0.0465,0.0465 -0.0709,0.10295 -0.073,0.16908 l 0,2.91893 c 0.002,0.0724 0.0264,0.13054 0.073,0.17443 0.0465,0.0439 0.10294,0.0665 0.16908,0.0676 l 2.49178,0 c 0.0724,0.002 0.13052,0.0264 0.17442,0.073 0.0439,0.0466 0.0665,0.10294 0.0676,0.16908 l 0,7.5038 c 0.002,0.0662 0.0264,0.12251 0.073,0.16908 0.0465,0.0465 0.10294,0.0709 0.16909,0.073 l 2.91893,0 c 0.0724,-0.002 0.13051,-0.0264 0.17443,-0.073 0.0439,-0.0465 0.0665,-0.10293 0.0676,-0.16908 l 0,-7.5038 c 0.002,-0.0662 0.0267,-0.1225 0.0748,-0.16908 0.0481,-0.0465 0.10856,-0.0709 0.18154,-0.073 l 2.12156,0 c 0.0665,-9.6e-4 0.12577,-0.0238 0.17799,-0.0676 0.0522,-0.0439 0.083,-0.10204 0.0926,-0.17443 l 0.31325,-2.91893 z" />
          <path
             inkscape:connector-curvature="0"
             id="path5262"
             style="font-size:40px;font-style:normal;font-variant:normal;font-weight:normal;font-stretch:normal;text-align:start;line-height:125%;letter-spacing:0px;word-spacing:0px;writing-mode:lr-tb;text-anchor:start;fill:#6ba0d9;fill-opacity:1;stroke:none;font-family:FatFrank;-inkscape-font-specification:FatFrank"
             d="m 174.53797,223.94006 c -1.68017,0.0427 -3.07912,0.62295 -4.19685,1.74068 -1.11774,1.11775 -1.69797,2.5167 -1.74069,4.19685 0.0427,1.68641 0.62295,3.08713 1.74069,4.2022 1.11773,1.11506 2.51668,1.69351 4.19685,1.73535 1.68016,-0.0418 3.0791,-0.62029 4.19685,-1.73535 1.11773,-1.11507 1.69795,-2.51579 1.74068,-4.2022 -0.0427,-1.68015 -0.62295,-3.0791 -1.74068,-4.19685 -1.11775,-1.11773 -2.51669,-1.69796 -4.19685,-1.74068 z m 0,8.47202 c -0.7161,-0.0184 -1.31294,-0.26638 -1.79052,-0.74397 -0.47759,-0.47759 -0.72558,-1.07443 -0.74397,-1.79052 0.0184,-0.71608 0.26638,-1.31291 0.74397,-1.79051 0.47758,-0.47758 1.07442,-0.72557 1.79052,-0.74398 0.71608,0.0184 1.31292,0.2664 1.79051,0.74398 0.47758,0.4776 0.72557,1.07443 0.74397,1.79051 -0.0184,0.71609 -0.26639,1.31293 -0.74397,1.79052 -0.47759,0.47759 -1.07443,0.72559 -1.79051,0.74397 z" />
          <path
             inkscape:connector-curvature="0"
             id="path5264"
             style="font-size:40px;font-style:normal;font-variant:normal;font-weight:normal;font-stretch:normal;text-align:start;line-height:125%;letter-spacing:0px;word-spacing:0px;writing-mode:lr-tb;text-anchor:start;fill:#6ba0d9;fill-opacity:1;stroke:none;font-family:FatFrank;-inkscape-font-specification:FatFrank"
             d="m 189.97964,232.61142 0,0 c -0.13705,-0.0371 -0.26164,-0.10174 -0.37377,-0.194 -0.11212,-0.0923 -0.20113,-0.20319 -0.26696,-0.33283 0.51109,-0.41202 0.91274,-0.91572 1.20495,-1.51108 0.29218,-0.59535 0.44108,-1.24499 0.44673,-1.94892 -0.0314,-1.25656 -0.46335,-2.3031 -1.29572,-3.13963 -0.83238,-0.83652 -1.87654,-1.27079 -3.13251,-1.30284 l -1.65169,0 -3.17523,0 c -0.0656,0.009 -0.11954,0.0344 -0.16196,0.0783 -0.0424,0.0439 -0.0644,0.0985 -0.0659,0.16374 l 0,10.90684 c 0.002,0.0724 0.0264,0.13052 0.073,0.17442 0.0465,0.0439 0.10295,0.0665 0.16909,0.0676 l 2.91893,0 c 0.0724,-9.6e-4 0.13052,-0.0238 0.17443,-0.0676 0.044,-0.0439 0.0665,-0.10204 0.0676,-0.17442 l 0,-2.02189 c 0.002,-0.0724 0.0264,-0.13053 0.073,-0.17443 0.0465,-0.0438 0.10293,-0.0665 0.16909,-0.0676 l 0.91127,0 c 0.2812,0.78758 0.73684,1.44434 1.36691,1.97028 0.63005,0.52594 1.37047,0.85165 2.22124,0.97713 0.0332,0.004 0.0771,-0.007 0.13171,-0.0321 0.0546,-0.0249 0.0914,-0.0854 0.11034,-0.18154 l 0.31326,-2.9047 c 2.8e-4,-0.11686 -0.0288,-0.1928 -0.0872,-0.22781 -0.0584,-0.035 -0.10532,-0.054 -0.14062,-0.057 z m -3.41728,-2.9474 -1.40963,0 c -0.0662,-0.002 -0.12252,-0.0264 -0.16908,-0.073 -0.0465,-0.0465 -0.0709,-0.10294 -0.073,-0.16909 l 0,-1.59474 c 0.002,-0.0662 0.0264,-0.1225 0.073,-0.16908 0.0465,-0.0465 0.10293,-0.0709 0.16908,-0.073 l 1.40963,0 c 0.29189,0.008 0.53395,0.10977 0.72617,0.30613 0.19222,0.19639 0.29189,0.44082 0.29901,0.7333 -0.007,0.29249 -0.10679,0.53692 -0.29901,0.73329 -0.19222,0.19639 -0.43428,0.29843 -0.72617,0.30614 z" />
        </g>
      </g>
    </g>
  </g>
  <g
     inkscape:label="iphone_template"
     inkscape:groupmode="layer"
     id="layer1"
     sodipodi:insensitive="true"
     style="display:inline">
    <image
       y="40.362183"
       x="156"
       id="image6005"
       xlink:href="file:///C:/Users/andreas/Documents/GitHub/pace-calculator/design/iphone_template.png"
       height="868"
       width="399" />
    <image
       y="173.36218"
       x="196"
       id="image6016"
       xlink:href="file:///C:/Users/andreas/Documents/GitHub/pace-calculator/design/iphone_statusbar.png"
       height="20"
       width="320" />
  </g>
</svg>
