<?xml version="1.0" encoding="UTF-8" standalone="no"?>
<!-- Created with Inkscape (http://www.inkscape.org/) -->

<svg
   xmlns:dc="http://purl.org/dc/elements/1.1/"
   xmlns:cc="http://creativecommons.org/ns#"
   xmlns:rdf="http://www.w3.org/1999/02/22-rdf-syntax-ns#"
   xmlns:svg="http://www.w3.org/2000/svg"
   xmlns="http://www.w3.org/2000/svg"
   xmlns:sodipodi="http://sodipodi.sourceforge.net/DTD/sodipodi-0.dtd"
   xmlns:inkscape="http://www.inkscape.org/namespaces/inkscape"
   width="210mm"
   height="297mm"
   id="svg5308"
   version="1.1"
   inkscape:version="0.48.2 r9819"
   sodipodi:docname="Neues Dokument 6">
  <defs
     id="defs5310" />
  <sodipodi:namedview
     id="base"
     pagecolor="#ffffff"
     bordercolor="#666666"
     borderopacity="1.0"
     inkscape:pageopacity="0.0"
     inkscape:pageshadow="2"
     inkscape:zoom="1.4"
     inkscape:cx="217.00919"
     inkscape:cy="909.64947"
     inkscape:document-units="px"
     inkscape:current-layer="layer1"
     showgrid="false"
     inkscape:window-width="1920"
     inkscape:window-height="1178"
     inkscape:window-x="-8"
     inkscape:window-y="-8"
     inkscape:window-maximized="1" />
  <metadata
     id="metadata5313">
    <rdf:RDF>
      <cc:Work
         rdf:about="">
        <dc:format>image/svg+xml</dc:format>
        <dc:type
           rdf:resource="http://purl.org/dc/dcmitype/StillImage" />
        <dc:title></dc:title>
      </cc:Work>
    </rdf:RDF>
  </metadata>
  <g
     inkscape:label="Ebene 1"
     inkscape:groupmode="layer"
     id="layer1">
    <g
       style="display:inline"
       id="g4953"
       transform="translate(-84.285712,-629.50999)">
      <path
         d="m 202.85714,755.93359 c 0,24.45833 -19.82739,44.28572 -44.28571,44.28572 -24.45833,0 -44.28572,-19.82739 -44.28572,-44.28572 0,-24.45832 19.82739,-44.28571 44.28572,-44.28571 24.45832,0 44.28571,19.82739 44.28571,44.28571 z"
         sodipodi:ry="44.285713"
         sodipodi:rx="44.285713"
         sodipodi:cy="755.93359"
         sodipodi:cx="158.57143"
         id="path4880"
         style="fill:#6ba0d9;fill-opacity:1;stroke:none"
         sodipodi:type="arc" />
      <path
         transform="matrix(1.1616039,0,0,1.1616039,-26.662902,-114.87357)"
         d="m 171.42857,696.4693 c 0,6.60769 -5.3566,11.96429 -11.96429,11.96429 -6.60769,0 -11.96429,-5.3566 -11.96429,-11.96429 0,-6.60769 5.3566,-11.96429 11.96429,-11.96429 6.60769,0 11.96429,5.3566 11.96429,11.96429 z"
         sodipodi:ry="11.964286"
         sodipodi:rx="11.964286"
         sodipodi:cy="696.4693"
         sodipodi:cx="159.46428"
         id="path4882"
         style="fill:none;stroke:#6ba0d9;stroke-width:4.19999981;stroke-miterlimit:4;stroke-opacity:1;stroke-dasharray:none"
         sodipodi:type="arc" />
      <rect
         y="698.81335"
         x="153.75482"
         height="14.906509"
         width="9.6332064"
         id="rect4884"
         style="fill:#6ba0d9;fill-opacity:1;stroke:none" />
      <rect
         y="695.83099"
         x="154.04399"
         height="2.3008285"
         width="9.0548735"
         id="rect4886"
         style="fill:none;stroke:#6ba0d9;stroke-width:5.76038694;stroke-miterlimit:4;stroke-opacity:1;stroke-dasharray:none" />
      <path
         transform="matrix(0.67985092,0,0,0.67985092,50.766496,242.01145)"
         sodipodi:type="arc"
         style="fill:#ffffff;fill-opacity:1;stroke:none"
         id="path4888"
         sodipodi:cx="158.57143"
         sodipodi:cy="755.93359"
         sodipodi:rx="44.285713"
         sodipodi:ry="44.285713"
         d="m 202.85714,755.93359 c 0,24.45833 -19.82739,44.28572 -44.28571,44.28572 -24.45833,0 -44.28572,-19.82739 -44.28572,-44.28572 0,-24.45832 19.82739,-44.28571 44.28572,-44.28571 24.45832,0 44.28571,19.82739 44.28571,44.28571 z" />
      <path
         sodipodi:nodetypes="ccszsc"
         inkscape:connector-curvature="0"
         id="rect4936"
         d="m 176.62086,735.01732 2.47544,2.59388 -17.15236,21.24358 c -2.61753,3.24187 -6.57762,2.79752 -8.43505,0.91276 -1.85743,-1.88476 -2.14069,-6.22803 1.03513,-8.55741 z"
         inkscape:transform-center-y="-8.2259654"
         inkscape:transform-center-x="-8.5644091"
         style="fill:#6ba0d9;fill-opacity:1;stroke:none" />
    </g>
    <rect
       style="fill:#6ba0d9;fill-opacity:1;stroke:none;display:inline"
       id="rect5196"
       width="157.29039"
       height="197.70247"
       x="142.70094"
       y="6.6522632" />
    <g
       style="display:inline"
       id="g5093"
       transform="matrix(1.0131286,0,0,1.0131286,-872.22653,-281.06028)">
      <path
         transform="translate(919.61849,-353.54618)"
         sodipodi:type="arc"
         style="fill:#ffffff;fill-opacity:1;stroke:#ffffff;stroke-opacity:1"
         id="path5095"
         sodipodi:cx="158.57143"
         sodipodi:cy="755.93359"
         sodipodi:rx="44.285713"
         sodipodi:ry="44.285713"
         d="m 202.85714,755.93359 c 0,24.45833 -19.82739,44.28572 -44.28571,44.28572 -24.45833,0 -44.28572,-19.82739 -44.28572,-44.28572 0,-24.45832 19.82739,-44.28571 44.28572,-44.28571 24.45832,0 44.28571,19.82739 44.28571,44.28571 z" />
      <path
         sodipodi:type="arc"
         style="fill:none;stroke:#ffffff;stroke-width:4.19999981;stroke-miterlimit:4;stroke-opacity:1;stroke-dasharray:none"
         id="path5097"
         sodipodi:cx="159.46428"
         sodipodi:cy="696.4693"
         sodipodi:rx="11.964286"
         sodipodi:ry="11.964286"
         d="m 171.42857,696.4693 c 0,6.60769 -5.3566,11.96429 -11.96429,11.96429 -6.60769,0 -11.96429,-5.3566 -11.96429,-11.96429 0,-6.60769 5.3566,-11.96429 11.96429,-11.96429 6.60769,0 11.96429,5.3566 11.96429,11.96429 z"
         transform="matrix(1.1616039,0,0,1.1616039,892.95559,-468.41975)" />
      <rect
         style="fill:#ffffff;fill-opacity:1;stroke:#ffffff;stroke-opacity:1"
         id="rect5099"
         width="9.6332064"
         height="14.906509"
         x="1073.3733"
         y="345.26718" />
      <rect
         style="fill:#ffffff;fill-opacity:1;stroke:#ffffff;stroke-width:5.76038694;stroke-miterlimit:4;stroke-opacity:1;stroke-dasharray:none"
         id="rect5101"
         width="9.0548735"
         height="2.3008285"
         x="1073.6625"
         y="342.28482" />
      <path
         d="m 202.85714,755.93359 c 0,24.45833 -19.82739,44.28572 -44.28571,44.28572 -24.45833,0 -44.28572,-19.82739 -44.28572,-44.28572 0,-24.45832 19.82739,-44.28571 44.28572,-44.28571 24.45832,0 44.28571,19.82739 44.28571,44.28571 z"
         sodipodi:ry="44.285713"
         sodipodi:rx="44.285713"
         sodipodi:cy="755.93359"
         sodipodi:cx="158.57143"
         id="path5103"
         style="fill:#6ba0d9;fill-opacity:1;stroke:#ffffff;stroke-opacity:1"
         sodipodi:type="arc"
         transform="matrix(0.67985092,0,0,0.67985092,970.38499,-111.53473)" />
      <path
         style="fill:#ffffff;fill-opacity:1;stroke:#ffffff;stroke-opacity:1"
         inkscape:transform-center-x="-8.5644091"
         inkscape:transform-center-y="-8.2259654"
         d="m 1096.2393,381.47114 2.4755,2.59388 -17.1524,21.24358 c -2.6175,3.24187 -6.5776,2.79752 -8.435,0.91276 -1.8575,-1.88476 -2.1407,-6.22803 1.0351,-8.55741 z"
         id="path5105"
         inkscape:connector-curvature="0"
         sodipodi:nodetypes="ccszsc" />
    </g>
  </g>
</svg>
