<?xml version="1.0" encoding="UTF-8" standalone="no"?>
<!-- Created with Inkscape (http://www.inkscape.org/) -->

<svg
   xmlns:dc="http://purl.org/dc/elements/1.1/"
   xmlns:cc="http://creativecommons.org/ns#"
   xmlns:rdf="http://www.w3.org/1999/02/22-rdf-syntax-ns#"
   xmlns:svg="http://www.w3.org/2000/svg"
   xmlns="http://www.w3.org/2000/svg"
   version="1.1"
   width="100"
   height="100"
   id="svg3188">
  <defs
     id="defs3190" />
  <metadata
     id="metadata3193">
    <rdf:RDF>
      <cc:Work
         rdf:about="">
        <dc:format>image/svg+xml</dc:format>
        <dc:type
           rdf:resource="http://purl.org/dc/dcmitype/StillImage" />
        <dc:title></dc:title>
      </cc:Work>
    </rdf:RDF>
  </metadata>
  <g
     transform="translate(0,-952.36218)"
     id="layer1">
    <g
       transform="matrix(1.225728,0,0,1.225728,-265.73392,603.93643)"
       id="g3963"
       style="display:inline">
      <rect
         width="88.495598"
         height="30.61949"
         rx="3.1973057"
         ry="3.1973057"
         x="367.74176"
         y="32.394115"
         transform="matrix(0.70710678,0.70710678,-0.70710678,0.70710678,0,0)"
         id="rect4445"
         style="fill:#efcf64;fill-opacity:1;stroke:none" />
      <path
         d="m 251.34285,301.44391 -4.49543,4.49543 1.86519,1.86519 4.49543,-4.49543 -1.86519,-1.86519 z"
         id="path4567"
         style="fill:#ffffff;fill-opacity:1;stroke:none" />
      <path
         d="m 265.3459,315.44697 -4.49543,4.49543 1.85106,1.85106 4.49543,-4.49543 -1.85106,-1.85106 z"
         id="path4565"
         style="fill:#ffffff;fill-opacity:1;stroke:none" />
      <path
         d="m 279.33483,329.43589 -4.49543,4.49543 1.85106,1.85106 4.49543,-4.49543 -1.85106,-1.85106 z"
         id="path4563"
         style="fill:#ffffff;fill-opacity:1;stroke:none" />
      <path
         d="m 244.29186,294.50597 -7.63032,7.63032 1.85106,1.85106 7.63032,-7.63032 -1.85106,-1.85106 z"
         id="path4561"
         style="fill:#ffffff;fill-opacity:1;stroke:none" />
      <path
         d="m 258.29492,308.50903 -7.63033,7.63032 1.85106,1.85106 7.63033,-7.63032 -1.85106,-1.85106 z"
         id="path4559"
         style="fill:#ffffff;fill-opacity:1;stroke:none" />
      <path
         d="m 272.28384,322.49795 -7.63032,7.63033 1.85106,1.85106 7.63032,-7.63033 -1.85106,-1.85106 z"
         id="path4557"
         style="fill:#ffffff;fill-opacity:1;stroke:none" />
      <path
         d="m 286.27277,336.48688 -7.63032,7.63032 1.85106,1.85106 7.63032,-7.63032 -1.85106,-1.85106 z"
         id="rect4447"
         style="fill:#ffffff;fill-opacity:1;stroke:none" />
    </g>
  </g>
</svg>
