<?xml version="1.0" encoding="UTF-8" standalone="no"?>
<!-- Created with Inkscape (http://www.inkscape.org/) -->

<svg
   xmlns:dc="http://purl.org/dc/elements/1.1/"
   xmlns:cc="http://creativecommons.org/ns#"
   xmlns:rdf="http://www.w3.org/1999/02/22-rdf-syntax-ns#"
   xmlns:svg="http://www.w3.org/2000/svg"
   xmlns="http://www.w3.org/2000/svg"
   version="1.1"
   width="100"
   height="100"
   id="svg5308">
  <defs
     id="defs5310" />
  <metadata
     id="metadata5313">
    <rdf:RDF>
      <cc:Work
         rdf:about="">
        <dc:format>image/svg+xml</dc:format>
        <dc:type
           rdf:resource="http://purl.org/dc/dcmitype/StillImage" />
        <dc:title></dc:title>
      </cc:Work>
    </rdf:RDF>
  </metadata>
  <g
     id="layer3">
    <g
       transform="matrix(0.81693639,0,0,0.81693639,-79.542769,-553.72827)"
       id="g4953"
       style="display:inline">
      <path
         d="m 50,0 c -7.347412,0 -13.34375,5.9963385 -13.34375,13.34375 0,5.980337 3.965785,11.064457 9.40625,12.75 l 0,1.78125 C 27.939012,29.840494 13.8125,45.16658 13.8125,63.8125 13.8125,83.793395 30.019105,100 50,100 c 19.980895,0 36.1875,-16.206605 36.1875,-36.1875 0,-18.64592 -14.126512,-33.972006 -32.25,-35.9375 l 0,-1.78125 c 5.440465,-1.685543 9.40625,-6.769663 9.40625,-12.75 C 63.34375,5.9963385 57.347412,0 50,0 z m 0,3.96875 c 5.19342,0 9.375,4.1815802 9.375,9.375 0,3.783438 -2.22569,7.01727 -5.4375,8.5 l 0,-2.90625 2.09375,0 0,-2.34375 0,-1.875 0,-2.375 -2.34375,0 -7.40625,0 -2.34375,0 0,2.375 0,1.875 0,2.34375 2.125,0 0,2.90625 c -3.21181,-1.48273 -5.4375,-4.716562 -5.4375,-8.5 0,-5.1934198 4.18158,-9.375 9.375,-9.375 z m 0,35.25 c 13.58403,0 24.59375,11.00972 24.59375,24.59375 0,13.58403 -11.00972,24.59375 -24.59375,24.59375 -13.58403,0 -24.59375,-11.00972 -24.59375,-24.59375 0,-13.58403 11.00972,-24.59375 24.59375,-24.59375 z m 14.75,7.5 -18.03125,13.25 c -2.594443,1.902955 -2.361152,5.460271 -0.84375,7 1.517402,1.539729 4.736644,1.898402 6.875,-0.75 l 14.03125,-17.375 -2.03125,-2.125 z"
         transform="matrix(1.2240855,0,0,1.2240855,97.367151,677.81075)"
         id="path4880"
         style="fill:#8ad96b;fill-opacity:1;stroke:none" />
    </g>
  </g>
</svg>
